<mxfile host="Electron" agent="Mozilla/5.0 (X11; Linux x86_64) AppleWebKit/537.36 (KHTML, like Gecko) draw.io/24.7.8 Chrome/128.0.6613.120 Electron/32.1.0 Safari/537.36" version="24.7.8">
  <diagram name="Page-1" id="OlGZkpxojUD_AP5KmQLQ">
    <mxGraphModel dx="2046" dy="1237" grid="1" gridSize="10" guides="1" tooltips="1" connect="1" arrows="1" fold="1" page="1" pageScale="1" pageWidth="827" pageHeight="1169" background="#444444" math="0" shadow="0">
      <root>
        <mxCell id="0" />
        <mxCell id="1" parent="0" />
        <mxCell id="v0S2vT5wZ2QxvqDgRi7f-3" style="edgeStyle=orthogonalEdgeStyle;rounded=0;orthogonalLoop=1;jettySize=auto;html=1;entryX=0.5;entryY=0;entryDx=0;entryDy=0;fontFamily=monospace;spacingLeft=0;fontSize=15;fontColor=#FFFFFF;" parent="1" source="v0S2vT5wZ2QxvqDgRi7f-1" target="v0S2vT5wZ2QxvqDgRi7f-2" edge="1">
          <mxGeometry relative="1" as="geometry" />
        </mxCell>
        <mxCell id="64hMs6I8nZk4gtIsN72T-1" value="(↓0" style="edgeLabel;html=1;align=center;verticalAlign=middle;resizable=0;points=[];fontFamily=monospace;fontSize=15;fontColor=#ffffff;labelBackgroundColor=#444444;" parent="v0S2vT5wZ2QxvqDgRi7f-3" vertex="1" connectable="0">
          <mxGeometry x="-0.1193" y="3" relative="1" as="geometry">
            <mxPoint x="-3" y="1" as="offset" />
          </mxGeometry>
        </mxCell>
        <mxCell id="v0S2vT5wZ2QxvqDgRi7f-5" style="rounded=0;orthogonalLoop=1;jettySize=auto;html=1;fontFamily=monospace;spacingLeft=0;fontSize=15;fontColor=#FFFFFF;" parent="1" source="FZ70wjOdxFnto3_ZZ9aK-1" target="v0S2vT5wZ2QxvqDgRi7f-4" edge="1">
          <mxGeometry relative="1" as="geometry">
            <mxPoint x="330" y="130" as="targetPoint" />
          </mxGeometry>
        </mxCell>
        <mxCell id="v0S2vT5wZ2QxvqDgRi7f-37" value="↑E" style="edgeLabel;html=1;align=center;verticalAlign=middle;resizable=0;points=[];rounded=0;fontFamily=monospace;spacingLeft=0;fontSize=15;labelBackgroundColor=#444444;fontColor=#FFFFFF;" parent="v0S2vT5wZ2QxvqDgRi7f-5" vertex="1" connectable="0">
          <mxGeometry x="-0.1" y="1" relative="1" as="geometry">
            <mxPoint x="-17" y="9" as="offset" />
          </mxGeometry>
        </mxCell>
        <mxCell id="v0S2vT5wZ2QxvqDgRi7f-7" style="rounded=0;orthogonalLoop=1;jettySize=auto;html=1;fontFamily=monospace;spacingLeft=0;fontSize=15;fontColor=#FFFFFF;" parent="1" source="FZ70wjOdxFnto3_ZZ9aK-1" target="v0S2vT5wZ2QxvqDgRi7f-6" edge="1">
          <mxGeometry relative="1" as="geometry">
            <mxPoint x="162.0400000000001" y="190.00168172971968" as="sourcePoint" />
            <mxPoint x="689.1642372881353" y="190.49170227761425" as="targetPoint" />
            <Array as="points">
              <mxPoint x="600" y="190" />
            </Array>
          </mxGeometry>
        </mxCell>
        <mxCell id="v0S2vT5wZ2QxvqDgRi7f-30" value="↑F" style="edgeLabel;html=1;align=center;verticalAlign=middle;resizable=0;points=[];rounded=0;fontFamily=monospace;spacingLeft=0;fontSize=15;labelBackgroundColor=#444444;fontColor=#FFFFFF;" parent="v0S2vT5wZ2QxvqDgRi7f-7" vertex="1" connectable="0">
          <mxGeometry x="0.1643" y="-1" relative="1" as="geometry">
            <mxPoint as="offset" />
          </mxGeometry>
        </mxCell>
        <mxCell id="v0S2vT5wZ2QxvqDgRi7f-11" style="rounded=0;orthogonalLoop=1;jettySize=auto;html=1;exitX=1;exitY=0.75;exitDx=0;exitDy=0;entryX=0;entryY=0.14;entryDx=0;entryDy=0;entryPerimeter=0;fontFamily=monospace;spacingLeft=0;fontSize=15;fontColor=#FFFFFF;" parent="1" source="v0S2vT5wZ2QxvqDgRi7f-1" target="v0S2vT5wZ2QxvqDgRi7f-10" edge="1">
          <mxGeometry relative="1" as="geometry" />
        </mxCell>
        <mxCell id="v0S2vT5wZ2QxvqDgRi7f-36" value="a↓0" style="edgeLabel;html=1;align=center;verticalAlign=middle;resizable=0;points=[];rounded=0;fontFamily=monospace;spacingLeft=0;fontSize=15;labelBackgroundColor=#444444;fontColor=#FFFFFF;" parent="v0S2vT5wZ2QxvqDgRi7f-11" vertex="1" connectable="0">
          <mxGeometry x="0.3957" y="-3" relative="1" as="geometry">
            <mxPoint y="-3" as="offset" />
          </mxGeometry>
        </mxCell>
        <mxCell id="v0S2vT5wZ2QxvqDgRi7f-31" style="rounded=0;orthogonalLoop=1;jettySize=auto;html=1;exitX=0;exitY=0.5;exitDx=0;exitDy=0;startArrow=classic;startFill=1;endArrow=none;endFill=0;fontFamily=monospace;spacingLeft=0;fontSize=15;fontColor=#FFFFFF;" parent="1" source="v0S2vT5wZ2QxvqDgRi7f-1" edge="1">
          <mxGeometry relative="1" as="geometry">
            <mxPoint y="222.97676470588237" as="targetPoint" />
          </mxGeometry>
        </mxCell>
        <mxCell id="v0S2vT5wZ2QxvqDgRi7f-52" style="rounded=0;orthogonalLoop=1;jettySize=auto;html=1;fontFamily=monospace;spacingLeft=0;fontSize=15;fontColor=#FFFFFF;" parent="1" source="FZ70wjOdxFnto3_ZZ9aK-1" target="v0S2vT5wZ2QxvqDgRi7f-8" edge="1">
          <mxGeometry relative="1" as="geometry" />
        </mxCell>
        <mxCell id="dsQuT1RgJaNSiDKjmoi5-3" value="↑T" style="edgeLabel;html=1;align=center;verticalAlign=middle;resizable=0;points=[];labelBackgroundColor=#444444;fontFamily=monospace;fontSize=15;" parent="v0S2vT5wZ2QxvqDgRi7f-52" vertex="1" connectable="0">
          <mxGeometry x="-0.5923" relative="1" as="geometry">
            <mxPoint x="18" y="-125" as="offset" />
          </mxGeometry>
        </mxCell>
        <mxCell id="v0S2vT5wZ2QxvqDgRi7f-1" value="&lt;div style=&quot;font-size: 15px;&quot;&gt;S0&lt;/div&gt;&lt;div style=&quot;text-align: left; font-size: 15px;&quot;&gt;&lt;br style=&quot;font-size: 15px;&quot;&gt;&lt;/div&gt;&lt;div style=&quot;text-align: left; font-size: 15px;&quot;&gt;&lt;span style=&quot;background-color: rgb(153, 153, 153);&quot;&gt;F = • a&lt;/span&gt;&lt;br&gt;&lt;/div&gt;&lt;div style=&quot;text-align: left; font-size: 15px;&quot;&gt;&lt;span style=&quot;font-size: 15px; background-color: rgb(170, 170, 170);&quot;&gt;F = • ( E )&lt;/span&gt;&lt;br style=&quot;font-size: 15px;&quot;&gt;&lt;/div&gt;" style="rounded=0;whiteSpace=wrap;html=1;fontFamily=monospace;spacingLeft=0;fontSize=15;fillColor=#333333;fontColor=#FFFFFF;spacing=2;labelPosition=center;verticalLabelPosition=middle;align=center;verticalAlign=top;" parent="1" vertex="1">
          <mxGeometry x="41.69" y="178.82999999999998" width="111.19" height="88.3" as="geometry" />
        </mxCell>
        <mxCell id="v0S2vT5wZ2QxvqDgRi7f-9" style="rounded=0;orthogonalLoop=1;jettySize=auto;html=1;fontFamily=monospace;spacingLeft=0;fontSize=15;fontColor=#FFFFFF;" parent="1" source="64hMs6I8nZk4gtIsN72T-3" target="v0S2vT5wZ2QxvqDgRi7f-8" edge="1">
          <mxGeometry relative="1" as="geometry">
            <Array as="points">
              <mxPoint x="540" y="280" />
            </Array>
          </mxGeometry>
        </mxCell>
        <mxCell id="v0S2vT5wZ2QxvqDgRi7f-43" value="↑T" style="edgeLabel;html=1;align=center;verticalAlign=middle;resizable=0;points=[];rounded=0;fontFamily=monospace;spacingLeft=0;fontSize=15;labelBackgroundColor=#444444;fontColor=#FFFFFF;" parent="v0S2vT5wZ2QxvqDgRi7f-9" vertex="1" connectable="0">
          <mxGeometry x="0.25" y="-5" relative="1" as="geometry">
            <mxPoint x="-11" y="-35" as="offset" />
          </mxGeometry>
        </mxCell>
        <mxCell id="v0S2vT5wZ2QxvqDgRi7f-12" style="rounded=0;orthogonalLoop=1;jettySize=auto;html=1;fontFamily=monospace;spacingLeft=0;fontSize=15;fontColor=#FFFFFF;" parent="1" source="v0S2vT5wZ2QxvqDgRi7f-2" target="v0S2vT5wZ2QxvqDgRi7f-10" edge="1">
          <mxGeometry relative="1" as="geometry" />
        </mxCell>
        <mxCell id="v0S2vT5wZ2QxvqDgRi7f-38" value="a↓5" style="edgeLabel;html=1;align=center;verticalAlign=middle;resizable=0;points=[];rounded=0;fontFamily=monospace;spacingLeft=0;fontSize=15;labelBackgroundColor=#444444;fontColor=#FFFFFF;" parent="v0S2vT5wZ2QxvqDgRi7f-12" vertex="1" connectable="0">
          <mxGeometry x="0.5294" relative="1" as="geometry">
            <mxPoint x="-14" y="-1" as="offset" />
          </mxGeometry>
        </mxCell>
        <mxCell id="MubAl_3DYgHU7uYo_Obh-1" style="edgeStyle=orthogonalEdgeStyle;shape=connector;rounded=0;orthogonalLoop=1;jettySize=auto;html=1;exitX=0.25;exitY=1;exitDx=0;exitDy=0;strokeColor=default;align=center;verticalAlign=middle;fontFamily=monospace;fontSize=15;fontColor=default;labelBackgroundColor=#444444;resizable=0;endArrow=classic;curved=1;entryX=0;entryY=1;entryDx=0;entryDy=0;" parent="1" source="v0S2vT5wZ2QxvqDgRi7f-2" target="v0S2vT5wZ2QxvqDgRi7f-2" edge="1">
          <mxGeometry relative="1" as="geometry">
            <mxPoint x="50" y="430" as="targetPoint" />
            <Array as="points">
              <mxPoint x="70" y="420" />
              <mxPoint x="42" y="420" />
            </Array>
          </mxGeometry>
        </mxCell>
        <mxCell id="MubAl_3DYgHU7uYo_Obh-3" value="(↓5" style="edgeLabel;html=1;align=center;verticalAlign=middle;resizable=0;points=[];fontFamily=monospace;fontSize=15;fontColor=default;labelBackgroundColor=#444444;fillColor=none;gradientColor=none;" parent="MubAl_3DYgHU7uYo_Obh-1" vertex="1" connectable="0">
          <mxGeometry x="-0.0062" y="1" relative="1" as="geometry">
            <mxPoint y="6" as="offset" />
          </mxGeometry>
        </mxCell>
        <mxCell id="v0S2vT5wZ2QxvqDgRi7f-2" value="&lt;div style=&quot;font-size: 15px;&quot;&gt;&lt;div&gt;S5&lt;/div&gt;&lt;div align=&quot;left&quot;&gt;&lt;br&gt;&lt;/div&gt;&lt;div align=&quot;justify&quot;&gt;&lt;span style=&quot;background-color: rgb(153, 153, 153); text-align: center;&quot;&gt;F = • a&lt;/span&gt;&lt;br&gt;&lt;/div&gt;&lt;div align=&quot;justify&quot;&gt;&lt;span style=&quot;background-color: rgb(187, 187, 187); text-align: center;&quot;&gt;F =&amp;nbsp;&lt;/span&gt;&lt;span style=&quot;background-color: rgb(187, 187, 187); text-align: center;&quot;&gt;•&lt;/span&gt;&lt;span style=&quot;background-color: rgb(187, 187, 187); text-align: center;&quot;&gt;&amp;nbsp;&lt;/span&gt;&lt;span style=&quot;background-color: rgb(187, 187, 187); text-align: center;&quot;&gt;( E )&lt;/span&gt;&lt;/div&gt;&lt;/div&gt;" style="rounded=0;whiteSpace=wrap;html=1;fontFamily=monospace;spacingLeft=0;fontSize=15;fillColor=#333333;fontColor=#FFFFFF;verticalAlign=top;" parent="1" vertex="1">
          <mxGeometry x="41.69" y="319.06" width="111.19" height="85.93" as="geometry" />
        </mxCell>
        <mxCell id="v0S2vT5wZ2QxvqDgRi7f-15" style="rounded=0;orthogonalLoop=1;jettySize=auto;html=1;fontFamily=monospace;spacingLeft=0;fontSize=15;fontColor=#FFFFFF;" parent="1" source="v0S2vT5wZ2QxvqDgRi7f-4" target="v0S2vT5wZ2QxvqDgRi7f-13" edge="1">
          <mxGeometry relative="1" as="geometry">
            <mxPoint x="319.66101694915255" y="237.5032352941177" as="sourcePoint" />
            <mxPoint x="507" y="279.06" as="targetPoint" />
          </mxGeometry>
        </mxCell>
        <mxCell id="v0S2vT5wZ2QxvqDgRi7f-57" value="+↓1" style="edgeLabel;html=1;align=center;verticalAlign=middle;resizable=0;points=[];rotation=0;rounded=0;fontFamily=monospace;spacingLeft=0;fontSize=15;labelBackgroundColor=#444444;fontColor=#FFFFFF;" parent="v0S2vT5wZ2QxvqDgRi7f-15" vertex="1" connectable="0">
          <mxGeometry x="-0.0844" relative="1" as="geometry">
            <mxPoint x="1" y="1" as="offset" />
          </mxGeometry>
        </mxCell>
        <mxCell id="v0S2vT5wZ2QxvqDgRi7f-4" value="&lt;div style=&quot;font-size: 15px;&quot;&gt;S1&lt;/div&gt;&lt;div align=&quot;left&quot; style=&quot;font-size: 15px;&quot;&gt;&lt;br style=&quot;font-size: 15px;&quot;&gt;&lt;/div&gt;&lt;div align=&quot;left&quot; style=&quot;font-size: 15px;&quot;&gt;S = E •&lt;/div&gt;&lt;div align=&quot;left&quot; style=&quot;font-size: 15px;&quot;&gt;&lt;span style=&quot;font-size: 15px; background-color: rgb(68, 68, 68);&quot;&gt;E = E&amp;nbsp;• + T&lt;/span&gt;&lt;/div&gt;" style="rounded=0;whiteSpace=wrap;html=1;fontFamily=monospace;spacingLeft=0;fontSize=15;fillColor=#333333;fontColor=#FFFFFF;verticalAlign=top;" parent="1" vertex="1">
          <mxGeometry x="41.694576271186435" y="590.0019117647059" width="111.1864406779661" height="97.28970588235295" as="geometry" />
        </mxCell>
        <mxCell id="-E7kK4X9FdWxb8oZjFQH-42" style="edgeStyle=none;shape=connector;rounded=0;orthogonalLoop=1;jettySize=auto;html=1;strokeColor=default;align=center;verticalAlign=middle;spacingLeft=0;fontFamily=monospace;fontSize=15;fontColor=#FFFFFF;labelBackgroundColor=default;endArrow=classic;" parent="1" source="v0S2vT5wZ2QxvqDgRi7f-6" target="FZ70wjOdxFnto3_ZZ9aK-1" edge="1">
          <mxGeometry relative="1" as="geometry">
            <Array as="points">
              <mxPoint x="580" y="150" />
            </Array>
          </mxGeometry>
        </mxCell>
        <mxCell id="-E7kK4X9FdWxb8oZjFQH-47" value="&lt;span style=&quot;&quot;&gt;[0]↓T&lt;/span&gt;" style="edgeLabel;html=1;align=center;verticalAlign=middle;resizable=0;points=[];rounded=0;strokeColor=default;spacingLeft=0;fontFamily=monospace;fontSize=15;fontColor=#FFFFFF;fillColor=#333333;labelBackgroundColor=#444444;" parent="-E7kK4X9FdWxb8oZjFQH-42" vertex="1" connectable="0">
          <mxGeometry x="-0.5565" y="2" relative="1" as="geometry">
            <mxPoint as="offset" />
          </mxGeometry>
        </mxCell>
        <mxCell id="-E7kK4X9FdWxb8oZjFQH-43" style="edgeStyle=none;shape=connector;rounded=0;orthogonalLoop=1;jettySize=auto;html=1;strokeColor=default;align=center;verticalAlign=middle;spacingLeft=0;fontFamily=monospace;fontSize=15;fontColor=#FFFFFF;labelBackgroundColor=default;endArrow=classic;" parent="1" source="v0S2vT5wZ2QxvqDgRi7f-6" target="-E7kK4X9FdWxb8oZjFQH-9" edge="1">
          <mxGeometry relative="1" as="geometry">
            <Array as="points">
              <mxPoint x="660" y="190" />
            </Array>
          </mxGeometry>
        </mxCell>
        <mxCell id="-E7kK4X9FdWxb8oZjFQH-46" value="&lt;span style=&quot;&quot;&gt;[6]↓T&lt;/span&gt;" style="edgeLabel;html=1;align=center;verticalAlign=middle;resizable=0;points=[];rounded=0;strokeColor=default;spacingLeft=0;fontFamily=monospace;fontSize=15;fontColor=#FFFFFF;fillColor=#333333;labelBackgroundColor=#444444;" parent="-E7kK4X9FdWxb8oZjFQH-43" vertex="1" connectable="0">
          <mxGeometry x="-0.2154" y="2" relative="1" as="geometry">
            <mxPoint x="-10" y="6" as="offset" />
          </mxGeometry>
        </mxCell>
        <mxCell id="-E7kK4X9FdWxb8oZjFQH-44" style="edgeStyle=none;shape=connector;rounded=0;orthogonalLoop=1;jettySize=auto;html=1;strokeColor=default;align=center;verticalAlign=middle;spacingLeft=0;fontFamily=monospace;fontSize=15;fontColor=#FFFFFF;labelBackgroundColor=default;endArrow=classic;" parent="1" source="v0S2vT5wZ2QxvqDgRi7f-6" target="64hMs6I8nZk4gtIsN72T-3" edge="1">
          <mxGeometry relative="1" as="geometry">
            <Array as="points">
              <mxPoint x="760" y="240" />
            </Array>
          </mxGeometry>
        </mxCell>
        <mxCell id="-E7kK4X9FdWxb8oZjFQH-45" value="[5]↓T" style="edgeLabel;html=1;align=center;verticalAlign=middle;resizable=0;points=[];rounded=0;strokeColor=default;spacingLeft=0;fontFamily=monospace;fontSize=15;fontColor=#FFFFFF;fillColor=#333333;labelBackgroundColor=#444444;" parent="-E7kK4X9FdWxb8oZjFQH-44" vertex="1" connectable="0">
          <mxGeometry x="-0.4265" y="3" relative="1" as="geometry">
            <mxPoint as="offset" />
          </mxGeometry>
        </mxCell>
        <mxCell id="v0S2vT5wZ2QxvqDgRi7f-6" value="&lt;div style=&quot;font-size: 15px;&quot;&gt;S3&lt;/div&gt;&lt;div align=&quot;left&quot; style=&quot;font-size: 15px;&quot;&gt;&lt;br style=&quot;font-size: 15px;&quot;&gt;&lt;/div&gt;&lt;div align=&quot;left&quot; style=&quot;font-size: 15px;&quot;&gt;&lt;span style=&quot;background-color: rgb(119, 119, 119); font-size: 15px;&quot;&gt;T = F •&lt;/span&gt;&lt;/div&gt;" style="rounded=0;whiteSpace=wrap;html=1;fontFamily=monospace;spacingLeft=0;fontSize=15;fillColor=#333333;fontColor=#FFFFFF;" parent="1" vertex="1">
          <mxGeometry x="740.0042372881355" y="23.907058823529415" width="111.1864406779661" height="69.49264705882354" as="geometry" />
        </mxCell>
        <mxCell id="v0S2vT5wZ2QxvqDgRi7f-22" style="rounded=0;orthogonalLoop=1;jettySize=auto;html=1;fontFamily=monospace;spacingLeft=0;fontSize=15;fontColor=#FFFFFF;" parent="1" source="v0S2vT5wZ2QxvqDgRi7f-8" target="v0S2vT5wZ2QxvqDgRi7f-20" edge="1">
          <mxGeometry relative="1" as="geometry" />
        </mxCell>
        <mxCell id="v0S2vT5wZ2QxvqDgRi7f-47" value="*↓2" style="edgeLabel;html=1;align=center;verticalAlign=middle;resizable=0;points=[];rounded=0;fontFamily=monospace;spacingLeft=0;fontSize=15;labelBackgroundColor=#444444;fontColor=#FFFFFF;" parent="v0S2vT5wZ2QxvqDgRi7f-22" vertex="1" connectable="0">
          <mxGeometry x="0.5083" relative="1" as="geometry">
            <mxPoint x="20" y="-16" as="offset" />
          </mxGeometry>
        </mxCell>
        <mxCell id="-E7kK4X9FdWxb8oZjFQH-11" style="rounded=0;orthogonalLoop=1;jettySize=auto;html=1;" parent="1" source="v0S2vT5wZ2QxvqDgRi7f-10" target="FZ70wjOdxFnto3_ZZ9aK-1" edge="1">
          <mxGeometry relative="1" as="geometry" />
        </mxCell>
        <mxCell id="-E7kK4X9FdWxb8oZjFQH-14" value="[0]↓F" style="edgeLabel;html=1;align=center;verticalAlign=middle;resizable=0;points=[];rounded=0;strokeColor=default;spacingLeft=0;fontFamily=monospace;fontSize=15;fontColor=#FFFFFF;fillColor=#333333;labelBackgroundColor=#444444;" parent="-E7kK4X9FdWxb8oZjFQH-11" vertex="1" connectable="0">
          <mxGeometry x="0.0054" y="1" relative="1" as="geometry">
            <mxPoint y="-17" as="offset" />
          </mxGeometry>
        </mxCell>
        <mxCell id="-E7kK4X9FdWxb8oZjFQH-19" style="edgeStyle=none;shape=connector;rounded=0;orthogonalLoop=1;jettySize=auto;html=1;strokeColor=default;align=center;verticalAlign=middle;spacingLeft=0;fontFamily=monospace;fontSize=15;fontColor=#FFFFFF;labelBackgroundColor=default;endArrow=classic;" parent="1" source="v0S2vT5wZ2QxvqDgRi7f-10" target="-E7kK4X9FdWxb8oZjFQH-9" edge="1">
          <mxGeometry relative="1" as="geometry">
            <Array as="points">
              <mxPoint x="450" y="290" />
            </Array>
          </mxGeometry>
        </mxCell>
        <mxCell id="-E7kK4X9FdWxb8oZjFQH-20" value="&lt;span style=&quot;&quot;&gt;[6]↓F&lt;/span&gt;" style="edgeLabel;html=1;align=center;verticalAlign=middle;resizable=0;points=[];rounded=0;strokeColor=default;spacingLeft=0;fontFamily=monospace;fontSize=15;fontColor=#FFFFFF;fillColor=#333333;labelBackgroundColor=#444444;" parent="-E7kK4X9FdWxb8oZjFQH-19" vertex="1" connectable="0">
          <mxGeometry x="0.7794" y="2" relative="1" as="geometry">
            <mxPoint x="-182" y="26" as="offset" />
          </mxGeometry>
        </mxCell>
        <mxCell id="-E7kK4X9FdWxb8oZjFQH-52" style="edgeStyle=none;shape=connector;rounded=0;orthogonalLoop=1;jettySize=auto;html=1;strokeColor=default;align=center;verticalAlign=middle;spacingLeft=0;fontFamily=monospace;fontSize=15;fontColor=#FFFFFF;labelBackgroundColor=default;endArrow=classic;" parent="1" source="v0S2vT5wZ2QxvqDgRi7f-10" target="-E7kK4X9FdWxb8oZjFQH-10" edge="1">
          <mxGeometry relative="1" as="geometry">
            <Array as="points">
              <mxPoint x="520" y="660" />
            </Array>
          </mxGeometry>
        </mxCell>
        <mxCell id="-E7kK4X9FdWxb8oZjFQH-53" value="&lt;span style=&quot;&quot;&gt;[7]↓F&lt;/span&gt;" style="edgeLabel;html=1;align=center;verticalAlign=middle;resizable=0;points=[];rounded=0;strokeColor=default;spacingLeft=0;fontFamily=monospace;fontSize=15;fontColor=#FFFFFF;fillColor=#333333;labelBackgroundColor=#444444;" parent="-E7kK4X9FdWxb8oZjFQH-52" vertex="1" connectable="0">
          <mxGeometry x="0.7018" relative="1" as="geometry">
            <mxPoint x="-354" y="-161" as="offset" />
          </mxGeometry>
        </mxCell>
        <mxCell id="v0S2vT5wZ2QxvqDgRi7f-10" value="&lt;div style=&quot;font-size: 15px;&quot;&gt;S4&lt;br style=&quot;font-size: 15px;&quot;&gt;&lt;/div&gt;&lt;div align=&quot;left&quot; style=&quot;font-size: 15px;&quot;&gt;&lt;br style=&quot;font-size: 15px;&quot;&gt;&lt;/div&gt;&lt;div align=&quot;left&quot; style=&quot;font-size: 15px;&quot;&gt;&lt;span style=&quot;background-color: rgb(153, 153, 153); font-size: 15px;&quot;&gt;F = a •&lt;/span&gt;&lt;/div&gt;" style="rounded=0;whiteSpace=wrap;html=1;fontFamily=monospace;spacingLeft=0;fontSize=15;fillColor=#333333;fontColor=#FFFFFF;" parent="1" vertex="1">
          <mxGeometry x="220.00457627118644" y="327.2794117647059" width="111.1864406779661" height="69.49264705882354" as="geometry" />
        </mxCell>
        <mxCell id="v0S2vT5wZ2QxvqDgRi7f-14" style="rounded=0;orthogonalLoop=1;jettySize=auto;html=1;fontFamily=monospace;spacingLeft=0;fontSize=15;fontColor=#FFFFFF;" parent="1" source="-E7kK4X9FdWxb8oZjFQH-9" target="v0S2vT5wZ2QxvqDgRi7f-6" edge="1">
          <mxGeometry relative="1" as="geometry">
            <Array as="points">
              <mxPoint x="690" y="210" />
            </Array>
          </mxGeometry>
        </mxCell>
        <mxCell id="v0S2vT5wZ2QxvqDgRi7f-34" value="↑F" style="edgeLabel;html=1;align=center;verticalAlign=middle;resizable=0;points=[];rounded=0;fontFamily=monospace;spacingLeft=0;fontSize=15;labelBackgroundColor=#444444;fontColor=#FFFFFF;" parent="v0S2vT5wZ2QxvqDgRi7f-14" vertex="1" connectable="0">
          <mxGeometry x="-0.35" relative="1" as="geometry">
            <mxPoint as="offset" />
          </mxGeometry>
        </mxCell>
        <mxCell id="v0S2vT5wZ2QxvqDgRi7f-16" style="rounded=0;orthogonalLoop=1;jettySize=auto;html=1;fontFamily=monospace;spacingLeft=0;fontSize=15;fontColor=#FFFFFF;" parent="1" source="v0S2vT5wZ2QxvqDgRi7f-13" target="v0S2vT5wZ2QxvqDgRi7f-10" edge="1">
          <mxGeometry relative="1" as="geometry" />
        </mxCell>
        <mxCell id="v0S2vT5wZ2QxvqDgRi7f-39" value="a↓6" style="edgeLabel;html=1;align=center;verticalAlign=middle;resizable=0;points=[];rounded=0;fontFamily=monospace;spacingLeft=0;fontSize=15;labelBackgroundColor=#444444;fontColor=#FFFFFF;" parent="v0S2vT5wZ2QxvqDgRi7f-16" vertex="1" connectable="0">
          <mxGeometry x="-0.1" y="4" relative="1" as="geometry">
            <mxPoint x="15" y="-6" as="offset" />
          </mxGeometry>
        </mxCell>
        <mxCell id="v0S2vT5wZ2QxvqDgRi7f-19" style="rounded=0;orthogonalLoop=1;jettySize=auto;html=1;fontFamily=monospace;spacingLeft=0;fontSize=15;fontColor=#FFFFFF;" parent="1" source="-E7kK4X9FdWxb8oZjFQH-9" target="v0S2vT5wZ2QxvqDgRi7f-18" edge="1">
          <mxGeometry relative="1" as="geometry" />
        </mxCell>
        <mxCell id="v0S2vT5wZ2QxvqDgRi7f-49" value="↑T" style="edgeLabel;html=1;align=center;verticalAlign=middle;resizable=0;points=[];rounded=0;fontFamily=monospace;spacingLeft=0;fontSize=15;labelBackgroundColor=#444444;fontColor=#FFFFFF;" parent="v0S2vT5wZ2QxvqDgRi7f-19" vertex="1" connectable="0">
          <mxGeometry x="0.2121" relative="1" as="geometry">
            <mxPoint as="offset" />
          </mxGeometry>
        </mxCell>
        <mxCell id="v0S2vT5wZ2QxvqDgRi7f-53" style="rounded=0;orthogonalLoop=1;jettySize=auto;html=1;fontFamily=monospace;spacingLeft=0;fontSize=15;fontColor=#FFFFFF;" parent="1" source="v0S2vT5wZ2QxvqDgRi7f-13" target="v0S2vT5wZ2QxvqDgRi7f-2" edge="1">
          <mxGeometry relative="1" as="geometry" />
        </mxCell>
        <mxCell id="v0S2vT5wZ2QxvqDgRi7f-54" value="(↓6" style="edgeLabel;html=1;align=center;verticalAlign=middle;resizable=0;points=[];rounded=0;fontFamily=monospace;spacingLeft=0;fontSize=15;labelBackgroundColor=#444444;fontColor=#FFFFFF;" parent="v0S2vT5wZ2QxvqDgRi7f-53" vertex="1" connectable="0">
          <mxGeometry x="-0.1726" relative="1" as="geometry">
            <mxPoint as="offset" />
          </mxGeometry>
        </mxCell>
        <mxCell id="v0S2vT5wZ2QxvqDgRi7f-13" value="&lt;div style=&quot;font-size: 15px;&quot;&gt;S6&lt;/div&gt;&lt;div align=&quot;left&quot; style=&quot;font-size: 15px;&quot;&gt;&lt;br style=&quot;font-size: 15px;&quot;&gt;&lt;/div&gt;&lt;div align=&quot;left&quot; style=&quot;font-size: 15px;&quot;&gt;&lt;span style=&quot;background-color: rgb(153, 153, 153); text-align: center;&quot;&gt;F = • a&lt;/span&gt;&lt;br&gt;&lt;/div&gt;&lt;div align=&quot;left&quot; style=&quot;font-size: 15px;&quot;&gt;&lt;span style=&quot;background-color: rgb(187, 187, 187); font-size: 15px;&quot;&gt;F = • ( E )&lt;/span&gt;&lt;br style=&quot;font-size: 15px;&quot;&gt;&lt;/div&gt;" style="rounded=0;whiteSpace=wrap;html=1;fontFamily=monospace;spacingLeft=0;fontSize=15;fillColor=#333333;fontColor=#FFFFFF;" parent="1" vertex="1">
          <mxGeometry x="41.69" y="454.32" width="111.19" height="85.68" as="geometry" />
        </mxCell>
        <mxCell id="v0S2vT5wZ2QxvqDgRi7f-21" style="edgeStyle=orthogonalEdgeStyle;rounded=0;orthogonalLoop=1;jettySize=auto;html=1;entryX=0.5;entryY=0;entryDx=0;entryDy=0;fontFamily=monospace;spacingLeft=0;fontSize=15;fontColor=#FFFFFF;" parent="1" source="v0S2vT5wZ2QxvqDgRi7f-18" target="v0S2vT5wZ2QxvqDgRi7f-20" edge="1">
          <mxGeometry relative="1" as="geometry" />
        </mxCell>
        <mxCell id="v0S2vT5wZ2QxvqDgRi7f-50" value="*↓9" style="edgeLabel;html=1;align=center;verticalAlign=middle;resizable=0;points=[];rounded=0;fontFamily=monospace;spacingLeft=0;fontSize=15;fontColor=#FFFFFF;labelBackgroundColor=#444444;" parent="v0S2vT5wZ2QxvqDgRi7f-21" vertex="1" connectable="0">
          <mxGeometry x="-0.6552" relative="1" as="geometry">
            <mxPoint y="10" as="offset" />
          </mxGeometry>
        </mxCell>
        <mxCell id="-E7kK4X9FdWxb8oZjFQH-26" style="edgeStyle=none;shape=connector;rounded=0;orthogonalLoop=1;jettySize=auto;html=1;strokeColor=default;align=center;verticalAlign=middle;spacingLeft=0;fontFamily=monospace;fontSize=15;fontColor=#FFFFFF;labelBackgroundColor=default;endArrow=classic;" parent="1" source="v0S2vT5wZ2QxvqDgRi7f-18" target="FZ70wjOdxFnto3_ZZ9aK-1" edge="1">
          <mxGeometry relative="1" as="geometry">
            <Array as="points">
              <mxPoint x="360" y="200" />
            </Array>
          </mxGeometry>
        </mxCell>
        <mxCell id="-E7kK4X9FdWxb8oZjFQH-28" value="↑6↑1[0]↓E&lt;br&gt;↑6↑8[0]↓E" style="edgeLabel;html=1;align=center;verticalAlign=middle;resizable=0;points=[];rounded=0;strokeColor=default;spacingLeft=0;fontFamily=monospace;fontSize=15;fontColor=#FFFFFF;fillColor=#333333;labelBackgroundColor=#444444;" parent="-E7kK4X9FdWxb8oZjFQH-26" vertex="1" connectable="0">
          <mxGeometry x="0.593" y="1" relative="1" as="geometry">
            <mxPoint x="-18" y="-36" as="offset" />
          </mxGeometry>
        </mxCell>
        <mxCell id="-E7kK4X9FdWxb8oZjFQH-27" style="edgeStyle=none;shape=connector;rounded=0;orthogonalLoop=1;jettySize=auto;html=1;strokeColor=default;align=center;verticalAlign=middle;spacingLeft=0;fontFamily=monospace;fontSize=15;fontColor=#FFFFFF;labelBackgroundColor=default;endArrow=classic;" parent="1" source="v0S2vT5wZ2QxvqDgRi7f-18" target="64hMs6I8nZk4gtIsN72T-3" edge="1">
          <mxGeometry relative="1" as="geometry" />
        </mxCell>
        <mxCell id="-E7kK4X9FdWxb8oZjFQH-29" value="↑6↑1[5]↓E&lt;br&gt;↑6↑8[5]↓E" style="edgeLabel;html=1;align=center;verticalAlign=middle;resizable=0;points=[];rounded=0;strokeColor=default;spacingLeft=0;fontFamily=monospace;fontSize=15;fontColor=#FFFFFF;fillColor=#333333;labelBackgroundColor=#444444;" parent="-E7kK4X9FdWxb8oZjFQH-27" vertex="1" connectable="0">
          <mxGeometry x="0.5599" y="2" relative="1" as="geometry">
            <mxPoint x="-107" y="-143" as="offset" />
          </mxGeometry>
        </mxCell>
        <mxCell id="v0S2vT5wZ2QxvqDgRi7f-18" value="&lt;div style=&quot;font-size: 15px;&quot;&gt;S9&lt;/div&gt;&lt;div align=&quot;left&quot; style=&quot;font-size: 15px;&quot;&gt;&lt;br style=&quot;font-size: 15px;&quot;&gt;&lt;/div&gt;&lt;div align=&quot;left&quot; style=&quot;font-size: 15px;&quot;&gt;&lt;span style=&quot;font-size: 15px; background-color: rgb(68, 68, 68);&quot;&gt;E = E + T •&lt;/span&gt;&lt;/div&gt;&lt;div align=&quot;left&quot; style=&quot;font-size: 15px;&quot;&gt;&lt;span style=&quot;background-color: rgb(85, 85, 85); font-size: 15px;&quot;&gt;T = T&amp;nbsp;• * F&lt;/span&gt;&lt;/div&gt;" style="rounded=0;whiteSpace=wrap;html=1;fontFamily=monospace;spacingLeft=0;fontSize=15;fillColor=#333333;fontColor=#FFFFFF;" parent="1" vertex="1">
          <mxGeometry x="220.0038983050847" y="23.903088235294092" width="111.1864406779661" height="97.28970588235295" as="geometry" />
        </mxCell>
        <mxCell id="v0S2vT5wZ2QxvqDgRi7f-24" style="rounded=0;orthogonalLoop=1;jettySize=auto;html=1;fontFamily=monospace;spacingLeft=0;fontSize=15;fontColor=#FFFFFF;" parent="1" source="-E7kK4X9FdWxb8oZjFQH-10" target="v0S2vT5wZ2QxvqDgRi7f-23" edge="1">
          <mxGeometry relative="1" as="geometry" />
        </mxCell>
        <mxCell id="v0S2vT5wZ2QxvqDgRi7f-48" value="↑F" style="edgeLabel;html=1;align=center;verticalAlign=middle;resizable=0;points=[];rounded=0;fontFamily=monospace;spacingLeft=0;fontSize=15;labelBackgroundColor=#444444;fontColor=#FFFFFF;" parent="v0S2vT5wZ2QxvqDgRi7f-24" vertex="1" connectable="0">
          <mxGeometry x="0.0167" y="-1" relative="1" as="geometry">
            <mxPoint x="-1" y="5" as="offset" />
          </mxGeometry>
        </mxCell>
        <mxCell id="v0S2vT5wZ2QxvqDgRi7f-40" style="rounded=0;orthogonalLoop=1;jettySize=auto;html=1;fontFamily=monospace;spacingLeft=0;fontSize=15;fontColor=#FFFFFF;" parent="1" source="v0S2vT5wZ2QxvqDgRi7f-20" target="v0S2vT5wZ2QxvqDgRi7f-10" edge="1">
          <mxGeometry relative="1" as="geometry" />
        </mxCell>
        <mxCell id="v0S2vT5wZ2QxvqDgRi7f-41" value="a↓7" style="edgeLabel;html=1;align=center;verticalAlign=middle;resizable=0;points=[];rounded=0;fontFamily=monospace;spacingLeft=0;fontSize=15;labelBackgroundColor=#444444;fontColor=#FFFFFF;" parent="v0S2vT5wZ2QxvqDgRi7f-40" vertex="1" connectable="0">
          <mxGeometry x="0.7195" y="1" relative="1" as="geometry">
            <mxPoint x="-1" y="-36" as="offset" />
          </mxGeometry>
        </mxCell>
        <mxCell id="MubAl_3DYgHU7uYo_Obh-4" style="edgeStyle=none;shape=connector;rounded=0;orthogonalLoop=1;jettySize=auto;html=1;strokeColor=default;align=center;verticalAlign=middle;fontFamily=monospace;fontSize=15;fontColor=default;labelBackgroundColor=#444444;resizable=0;endArrow=classic;" parent="1" source="v0S2vT5wZ2QxvqDgRi7f-20" target="v0S2vT5wZ2QxvqDgRi7f-2" edge="1">
          <mxGeometry relative="1" as="geometry" />
        </mxCell>
        <mxCell id="MubAl_3DYgHU7uYo_Obh-5" value="(↓7" style="edgeLabel;html=1;align=center;verticalAlign=middle;resizable=0;points=[];fontFamily=monospace;fontSize=15;fontColor=default;labelBackgroundColor=#444444;fillColor=none;gradientColor=none;" parent="MubAl_3DYgHU7uYo_Obh-4" vertex="1" connectable="0">
          <mxGeometry x="-0.4566" relative="1" as="geometry">
            <mxPoint as="offset" />
          </mxGeometry>
        </mxCell>
        <mxCell id="v0S2vT5wZ2QxvqDgRi7f-20" value="&lt;div style=&quot;font-size: 15px;&quot;&gt;S7&lt;/div&gt;&lt;div align=&quot;left&quot; style=&quot;font-size: 15px;&quot;&gt;&lt;br style=&quot;font-size: 15px;&quot;&gt;&lt;/div&gt;&lt;div align=&quot;left&quot; style=&quot;font-size: 15px;&quot;&gt;&lt;span style=&quot;background-color: rgb(153, 153, 153); text-align: center;&quot;&gt;F = • a&lt;/span&gt;&lt;br&gt;&lt;/div&gt;&lt;div align=&quot;left&quot; style=&quot;font-size: 15px;&quot;&gt;&lt;span style=&quot;background-color: rgb(187, 187, 187); font-size: 15px;&quot;&gt;F = • ( E )&lt;/span&gt;&lt;br style=&quot;font-size: 15px;&quot;&gt;&lt;/div&gt;" style="rounded=0;whiteSpace=wrap;html=1;fontFamily=monospace;spacingLeft=0;fontSize=15;fillColor=#333333;fontColor=#FFFFFF;" parent="1" vertex="1">
          <mxGeometry x="220" y="178.83" width="111.19" height="85.5" as="geometry" />
        </mxCell>
        <mxCell id="-E7kK4X9FdWxb8oZjFQH-30" style="edgeStyle=orthogonalEdgeStyle;shape=connector;rounded=0;orthogonalLoop=1;jettySize=auto;html=1;strokeColor=default;align=center;verticalAlign=middle;spacingLeft=0;fontFamily=monospace;fontSize=15;fontColor=#FFFFFF;labelBackgroundColor=default;endArrow=classic;" parent="1" source="v0S2vT5wZ2QxvqDgRi7f-23" target="FZ70wjOdxFnto3_ZZ9aK-1" edge="1">
          <mxGeometry relative="1" as="geometry">
            <Array as="points">
              <mxPoint x="550" y="375" />
              <mxPoint x="550" y="375" />
            </Array>
          </mxGeometry>
        </mxCell>
        <mxCell id="-E7kK4X9FdWxb8oZjFQH-34" value="&lt;span style=&quot;&quot;&gt;↑7↑2[0]↓T&lt;/span&gt;" style="edgeLabel;html=1;align=center;verticalAlign=middle;resizable=0;points=[];rounded=0;strokeColor=default;spacingLeft=0;fontFamily=monospace;fontSize=15;fontColor=#FFFFFF;fillColor=#333333;labelBackgroundColor=#444444;" parent="-E7kK4X9FdWxb8oZjFQH-30" vertex="1" connectable="0">
          <mxGeometry x="-0.4134" y="-1" relative="1" as="geometry">
            <mxPoint x="11" y="1" as="offset" />
          </mxGeometry>
        </mxCell>
        <mxCell id="-E7kK4X9FdWxb8oZjFQH-31" style="edgeStyle=none;shape=connector;rounded=0;orthogonalLoop=1;jettySize=auto;html=1;strokeColor=default;align=center;verticalAlign=middle;spacingLeft=0;fontFamily=monospace;fontSize=15;fontColor=#FFFFFF;labelBackgroundColor=default;endArrow=classic;" parent="1" source="v0S2vT5wZ2QxvqDgRi7f-23" target="64hMs6I8nZk4gtIsN72T-3" edge="1">
          <mxGeometry relative="1" as="geometry" />
        </mxCell>
        <mxCell id="-E7kK4X9FdWxb8oZjFQH-35" value="&lt;span style=&quot;&quot;&gt;↑7↑2[5]↓T&lt;/span&gt;" style="edgeLabel;html=1;align=center;verticalAlign=middle;resizable=0;points=[];rounded=0;strokeColor=default;spacingLeft=0;fontFamily=monospace;fontSize=15;fontColor=#FFFFFF;fillColor=#333333;labelBackgroundColor=#444444;" parent="-E7kK4X9FdWxb8oZjFQH-31" vertex="1" connectable="0">
          <mxGeometry x="-0.3126" y="-1" relative="1" as="geometry">
            <mxPoint x="-9" y="8" as="offset" />
          </mxGeometry>
        </mxCell>
        <mxCell id="-E7kK4X9FdWxb8oZjFQH-32" style="edgeStyle=none;shape=connector;rounded=0;orthogonalLoop=1;jettySize=auto;html=1;strokeColor=default;align=center;verticalAlign=middle;spacingLeft=0;fontFamily=monospace;fontSize=15;fontColor=#FFFFFF;labelBackgroundColor=default;endArrow=classic;" parent="1" source="v0S2vT5wZ2QxvqDgRi7f-23" target="-E7kK4X9FdWxb8oZjFQH-9" edge="1">
          <mxGeometry relative="1" as="geometry" />
        </mxCell>
        <mxCell id="-E7kK4X9FdWxb8oZjFQH-33" value="↑7↑9[6]↓T" style="edgeLabel;html=1;align=center;verticalAlign=middle;resizable=0;points=[];rounded=0;strokeColor=default;spacingLeft=0;fontFamily=monospace;fontSize=15;fontColor=#FFFFFF;fillColor=#333333;labelBackgroundColor=#444444;" parent="-E7kK4X9FdWxb8oZjFQH-32" vertex="1" connectable="0">
          <mxGeometry x="-0.2809" relative="1" as="geometry">
            <mxPoint x="4" y="-1" as="offset" />
          </mxGeometry>
        </mxCell>
        <mxCell id="v0S2vT5wZ2QxvqDgRi7f-23" value="&lt;div style=&quot;font-size: 15px;&quot;&gt;S10&lt;/div&gt;&lt;div align=&quot;left&quot; style=&quot;font-size: 15px;&quot;&gt;&lt;br style=&quot;font-size: 15px;&quot;&gt;&lt;/div&gt;&lt;div align=&quot;left&quot; style=&quot;font-size: 15px;&quot;&gt;&lt;span style=&quot;background-color: rgb(85, 85, 85); font-size: 15px;&quot;&gt;T = T * F •&lt;/span&gt;&lt;/div&gt;" style="rounded=0;whiteSpace=wrap;html=1;fontFamily=monospace;spacingLeft=0;fontSize=15;fillColor=#333333;fontColor=#FFFFFF;" parent="1" vertex="1">
          <mxGeometry x="810.003559322034" y="335.4961764705882" width="111.1864406779661" height="69.49264705882354" as="geometry" />
        </mxCell>
        <mxCell id="v0S2vT5wZ2QxvqDgRi7f-26" style="rounded=0;orthogonalLoop=1;jettySize=auto;html=1;fontFamily=monospace;spacingLeft=0;fontSize=15;fontColor=#FFFFFF;" parent="1" source="v0S2vT5wZ2QxvqDgRi7f-25" target="v0S2vT5wZ2QxvqDgRi7f-13" edge="1">
          <mxGeometry relative="1" as="geometry" />
        </mxCell>
        <mxCell id="v0S2vT5wZ2QxvqDgRi7f-46" value="+↓8" style="edgeLabel;html=1;align=center;verticalAlign=middle;resizable=0;points=[];rounded=0;fontFamily=monospace;spacingLeft=0;fontSize=15;labelBackgroundColor=#444444;fontColor=#FFFFFF;" parent="v0S2vT5wZ2QxvqDgRi7f-26" vertex="1" connectable="0">
          <mxGeometry y="-1" relative="1" as="geometry">
            <mxPoint x="-7" y="-3" as="offset" />
          </mxGeometry>
        </mxCell>
        <mxCell id="v0S2vT5wZ2QxvqDgRi7f-29" style="rounded=0;orthogonalLoop=1;jettySize=auto;html=1;fontFamily=monospace;spacingLeft=0;fontSize=15;fontColor=#FFFFFF;" parent="1" source="v0S2vT5wZ2QxvqDgRi7f-25" target="v0S2vT5wZ2QxvqDgRi7f-28" edge="1">
          <mxGeometry relative="1" as="geometry" />
        </mxCell>
        <mxCell id="v0S2vT5wZ2QxvqDgRi7f-45" value=")↓8" style="edgeLabel;html=1;align=center;verticalAlign=middle;resizable=0;points=[];rounded=0;fontFamily=monospace;spacingLeft=0;fontSize=15;labelBackgroundColor=#444444;fontColor=#FFFFFF;" parent="v0S2vT5wZ2QxvqDgRi7f-29" vertex="1" connectable="0">
          <mxGeometry x="0.0588" y="-2" relative="1" as="geometry">
            <mxPoint y="-2" as="offset" />
          </mxGeometry>
        </mxCell>
        <mxCell id="v0S2vT5wZ2QxvqDgRi7f-25" value="&lt;div style=&quot;font-size: 15px;&quot;&gt;S8&lt;/div&gt;&lt;div align=&quot;left&quot; style=&quot;font-size: 15px;&quot;&gt;&lt;br style=&quot;font-size: 15px;&quot;&gt;&lt;/div&gt;&lt;div align=&quot;left&quot; style=&quot;font-size: 15px;&quot;&gt;&lt;span style=&quot;font-size: 15px; background-color: rgb(68, 68, 68);&quot;&gt;E = E • + T&lt;/span&gt;&lt;/div&gt;&lt;div align=&quot;left&quot; style=&quot;font-size: 15px;&quot;&gt;&lt;span style=&quot;background-color: rgb(187, 187, 187); font-size: 15px;&quot;&gt;F = ( E • )&lt;/span&gt;&lt;/div&gt;" style="rounded=0;whiteSpace=wrap;html=1;fontFamily=monospace;spacingLeft=0;fontSize=15;fillColor=#333333;fontColor=#FFFFFF;" parent="1" vertex="1">
          <mxGeometry x="260.0042372881355" y="540.0002941176471" width="111.1864406779661" height="97.28970588235295" as="geometry" />
        </mxCell>
        <mxCell id="-E7kK4X9FdWxb8oZjFQH-24" style="edgeStyle=none;shape=connector;rounded=0;orthogonalLoop=1;jettySize=auto;html=1;strokeColor=default;align=center;verticalAlign=middle;spacingLeft=0;fontFamily=monospace;fontSize=15;fontColor=#FFFFFF;labelBackgroundColor=default;endArrow=classic;" parent="1" source="v0S2vT5wZ2QxvqDgRi7f-28" target="-E7kK4X9FdWxb8oZjFQH-10" edge="1">
          <mxGeometry relative="1" as="geometry" />
        </mxCell>
        <mxCell id="-E7kK4X9FdWxb8oZjFQH-25" value="↑8↑5[7]↓F" style="edgeLabel;html=1;align=center;verticalAlign=middle;resizable=0;points=[];rounded=0;strokeColor=default;spacingLeft=0;fontFamily=monospace;fontSize=15;fontColor=#FFFFFF;fillColor=#333333;labelBackgroundColor=#444444;" parent="-E7kK4X9FdWxb8oZjFQH-24" vertex="1" connectable="0">
          <mxGeometry x="0.1734" y="1" relative="1" as="geometry">
            <mxPoint x="-118" y="101" as="offset" />
          </mxGeometry>
        </mxCell>
        <mxCell id="-E7kK4X9FdWxb8oZjFQH-36" style="edgeStyle=none;shape=connector;rounded=0;orthogonalLoop=1;jettySize=auto;html=1;strokeColor=default;align=center;verticalAlign=middle;spacingLeft=0;fontFamily=monospace;fontSize=15;fontColor=#FFFFFF;labelBackgroundColor=default;endArrow=classic;" parent="1" source="v0S2vT5wZ2QxvqDgRi7f-28" target="-E7kK4X9FdWxb8oZjFQH-9" edge="1">
          <mxGeometry relative="1" as="geometry" />
        </mxCell>
        <mxCell id="-E7kK4X9FdWxb8oZjFQH-40" value="&lt;span style=&quot;&quot;&gt;↑8↑5[6]↓F&lt;/span&gt;" style="edgeLabel;html=1;align=center;verticalAlign=middle;resizable=0;points=[];rounded=0;strokeColor=default;spacingLeft=0;fontFamily=monospace;fontSize=15;fontColor=#FFFFFF;fillColor=#333333;labelBackgroundColor=#444444;" parent="-E7kK4X9FdWxb8oZjFQH-36" vertex="1" connectable="0">
          <mxGeometry x="0.8079" y="-2" relative="1" as="geometry">
            <mxPoint x="-144" y="291" as="offset" />
          </mxGeometry>
        </mxCell>
        <mxCell id="-E7kK4X9FdWxb8oZjFQH-37" style="edgeStyle=none;shape=connector;rounded=0;orthogonalLoop=1;jettySize=auto;html=1;strokeColor=default;align=center;verticalAlign=middle;spacingLeft=0;fontFamily=monospace;fontSize=15;fontColor=#FFFFFF;labelBackgroundColor=default;endArrow=classic;" parent="1" source="v0S2vT5wZ2QxvqDgRi7f-28" target="FZ70wjOdxFnto3_ZZ9aK-1" edge="1">
          <mxGeometry relative="1" as="geometry" />
        </mxCell>
        <mxCell id="-E7kK4X9FdWxb8oZjFQH-41" value="&lt;span style=&quot;&quot;&gt;↑8↑5[0]↓F&lt;/span&gt;" style="edgeLabel;html=1;align=center;verticalAlign=middle;resizable=0;points=[];rounded=0;strokeColor=default;spacingLeft=0;fontFamily=monospace;fontSize=15;fontColor=#FFFFFF;fillColor=#333333;labelBackgroundColor=#444444;" parent="-E7kK4X9FdWxb8oZjFQH-37" vertex="1" connectable="0">
          <mxGeometry x="-0.0855" relative="1" as="geometry">
            <mxPoint as="offset" />
          </mxGeometry>
        </mxCell>
        <mxCell id="-E7kK4X9FdWxb8oZjFQH-38" style="edgeStyle=none;shape=connector;rounded=0;orthogonalLoop=1;jettySize=auto;html=1;strokeColor=default;align=center;verticalAlign=middle;spacingLeft=0;fontFamily=monospace;fontSize=15;fontColor=#FFFFFF;labelBackgroundColor=default;endArrow=classic;" parent="1" source="v0S2vT5wZ2QxvqDgRi7f-28" target="64hMs6I8nZk4gtIsN72T-3" edge="1">
          <mxGeometry relative="1" as="geometry" />
        </mxCell>
        <mxCell id="-E7kK4X9FdWxb8oZjFQH-39" value="&lt;span style=&quot;&quot;&gt;↑8↑5[5]↓F&lt;/span&gt;" style="edgeLabel;html=1;align=center;verticalAlign=middle;resizable=0;points=[];rounded=0;strokeColor=default;spacingLeft=0;fontFamily=monospace;fontSize=15;fontColor=#FFFFFF;fillColor=#333333;labelBackgroundColor=#444444;" parent="-E7kK4X9FdWxb8oZjFQH-38" vertex="1" connectable="0">
          <mxGeometry x="0.6524" y="-2" relative="1" as="geometry">
            <mxPoint x="-78" y="135" as="offset" />
          </mxGeometry>
        </mxCell>
        <mxCell id="v0S2vT5wZ2QxvqDgRi7f-28" value="&lt;div style=&quot;font-size: 15px;&quot;&gt;S11&lt;/div&gt;&lt;div style=&quot;font-size: 15px;&quot;&gt;&lt;br style=&quot;font-size: 15px;&quot;&gt;&lt;/div&gt;&lt;div style=&quot;font-size: 15px;&quot;&gt;&lt;span style=&quot;background-color: rgb(187, 187, 187); font-size: 15px;&quot;&gt;F = ( E ) •&lt;/span&gt;&lt;/div&gt;" style="rounded=0;whiteSpace=wrap;html=1;fontFamily=monospace;spacingLeft=0;fontSize=15;fillColor=#333333;fontColor=#FFFFFF;" parent="1" vertex="1">
          <mxGeometry x="320.0035593220339" y="799.9973529411765" width="111.1864406779661" height="69.49264705882354" as="geometry" />
        </mxCell>
        <mxCell id="-E7kK4X9FdWxb8oZjFQH-6" style="rounded=0;orthogonalLoop=1;jettySize=auto;html=1;" parent="1" source="64hMs6I8nZk4gtIsN72T-3" target="v0S2vT5wZ2QxvqDgRi7f-25" edge="1">
          <mxGeometry relative="1" as="geometry" />
        </mxCell>
        <mxCell id="-E7kK4X9FdWxb8oZjFQH-8" value="↑E" style="edgeLabel;html=1;align=center;verticalAlign=middle;resizable=0;points=[];fontSize=15;fontFamily=monospace;labelBackgroundColor=#444444;fontColor=#ffffff;" parent="-E7kK4X9FdWxb8oZjFQH-6" vertex="1" connectable="0">
          <mxGeometry x="-0.0676" y="2" relative="1" as="geometry">
            <mxPoint y="-2" as="offset" />
          </mxGeometry>
        </mxCell>
        <mxCell id="-E7kK4X9FdWxb8oZjFQH-1" value="" style="rounded=0;orthogonalLoop=1;jettySize=auto;html=1;fontFamily=monospace;spacingLeft=0;fontSize=15;fontColor=#FFFFFF;" parent="1" source="64hMs6I8nZk4gtIsN72T-3" target="v0S2vT5wZ2QxvqDgRi7f-6" edge="1">
          <mxGeometry relative="1" as="geometry">
            <mxPoint x="530" y="603" as="sourcePoint" />
            <mxPoint x="680" y="205" as="targetPoint" />
          </mxGeometry>
        </mxCell>
        <mxCell id="-E7kK4X9FdWxb8oZjFQH-3" value="↑F" style="edgeLabel;html=1;align=center;verticalAlign=middle;resizable=0;points=[];fontFamily=monospace;fontColor=#ffffff;labelBackgroundColor=#444444;fontSize=15;" parent="-E7kK4X9FdWxb8oZjFQH-1" vertex="1" connectable="0">
          <mxGeometry x="-0.0399" y="-1" relative="1" as="geometry">
            <mxPoint x="-1" as="offset" />
          </mxGeometry>
        </mxCell>
        <mxCell id="FZ70wjOdxFnto3_ZZ9aK-1" value="&lt;div style=&quot;font-size: 15px;&quot;&gt;S0Goto&lt;/div&gt;&lt;div style=&quot;text-align: left; font-size: 15px;&quot;&gt;&lt;br style=&quot;font-size: 15px;&quot;&gt;&lt;/div&gt;&lt;div style=&quot;text-align: left; font-size: 15px;&quot;&gt;S = • E&lt;/div&gt;&lt;div style=&quot;text-align: left; font-size: 15px;&quot;&gt;&lt;span style=&quot;--darkreader-inline-bgcolor: #292b2a; font-size: 15px; background-color: rgb(68, 68, 68);&quot; data-darkreader-inline-bgcolor=&quot;&quot;&gt;E = • E + T&lt;/span&gt;&lt;/div&gt;&lt;div style=&quot;text-align: left; font-size: 15px;&quot;&gt;&lt;span style=&quot;background-color: rgb(74, 74, 74);&quot;&gt;E = • T&lt;/span&gt;&lt;/div&gt;&lt;div style=&quot;text-align: left; font-size: 15px;&quot;&gt;&lt;span style=&quot;--darkreader-inline-bgcolor: #292b2a; font-size: 15px; background-color: rgb(68, 68, 68);&quot; data-darkreader-inline-bgcolor=&quot;&quot;&gt;&lt;div style=&quot;background-color: rgb(27, 29, 30);&quot; align=&quot;justify&quot;&gt;&lt;span style=&quot;background-color: rgb(85, 85, 85); text-align: left;&quot;&gt;T = • T * F&lt;/span&gt;&lt;/div&gt;&lt;/span&gt;&lt;/div&gt;&lt;div style=&quot;text-align: left; font-size: 15px;&quot;&gt;&lt;span style=&quot;font-size: 15px; background-color: rgb(119, 119, 119);&quot;&gt;T = • F&lt;/span&gt;&lt;/div&gt;" style="rounded=0;whiteSpace=wrap;html=1;fontFamily=monospace;spacingLeft=0;fontSize=15;fillColor=#333333;fontColor=#FFFFFF;spacing=2;labelPosition=center;verticalLabelPosition=middle;align=center;verticalAlign=top;" parent="1" vertex="1">
          <mxGeometry x="378.25" y="327.28" width="111.19" height="140" as="geometry" />
        </mxCell>
        <mxCell id="-E7kK4X9FdWxb8oZjFQH-9" value="&lt;div style=&quot;font-size: 15px;&quot;&gt;S6Goto&lt;/div&gt;&lt;div align=&quot;left&quot; style=&quot;font-size: 15px;&quot;&gt;&lt;br style=&quot;font-size: 15px;&quot;&gt;&lt;/div&gt;&lt;div align=&quot;left&quot; style=&quot;font-size: 15px;&quot;&gt;&lt;span style=&quot;font-size: 15px; background-color: rgb(68, 68, 68);&quot;&gt;E = E + • T&lt;/span&gt;&lt;/div&gt;&lt;div align=&quot;left&quot; style=&quot;font-size: 15px;&quot;&gt;&lt;span style=&quot;background-color: rgb(85, 85, 85); font-size: 15px;&quot;&gt;T = • T * F&lt;/span&gt;&lt;/div&gt;&lt;div align=&quot;left&quot; style=&quot;font-size: 15px;&quot;&gt;&lt;span style=&quot;background-color: rgb(119, 119, 119); font-size: 15px;&quot;&gt;T = • F&lt;/span&gt;&lt;/div&gt;" style="rounded=0;whiteSpace=wrap;html=1;fontFamily=monospace;spacingLeft=0;fontSize=15;fillColor=#333333;fontColor=#FFFFFF;" parent="1" vertex="1">
          <mxGeometry x="570" y="230" width="111.19" height="103.65" as="geometry" />
        </mxCell>
        <mxCell id="-E7kK4X9FdWxb8oZjFQH-10" value="&lt;div style=&quot;font-size: 15px;&quot;&gt;S7Goto&lt;/div&gt;&lt;div align=&quot;left&quot; style=&quot;font-size: 15px;&quot;&gt;&lt;br style=&quot;font-size: 15px;&quot;&gt;&lt;/div&gt;&lt;div align=&quot;left&quot; style=&quot;font-size: 15px;&quot;&gt;&lt;span style=&quot;background-color: rgb(85, 85, 85); font-size: 15px;&quot;&gt;T = T * • F&lt;/span&gt;&lt;/div&gt;" style="rounded=0;whiteSpace=wrap;html=1;fontFamily=monospace;spacingLeft=0;fontSize=15;fillColor=#333333;fontColor=#FFFFFF;" parent="1" vertex="1">
          <mxGeometry x="730" y="491.79" width="111.19" height="70" as="geometry" />
        </mxCell>
        <mxCell id="vrU-Wr25Jtnr5T8jxTo--1" style="rounded=0;orthogonalLoop=1;jettySize=auto;html=1;" parent="1" source="v0S2vT5wZ2QxvqDgRi7f-8" target="FZ70wjOdxFnto3_ZZ9aK-1" edge="1">
          <mxGeometry relative="1" as="geometry">
            <Array as="points">
              <mxPoint x="487" y="230" />
            </Array>
          </mxGeometry>
        </mxCell>
        <mxCell id="vrU-Wr25Jtnr5T8jxTo--3" value="[0]↓E" style="edgeLabel;html=1;align=center;verticalAlign=middle;resizable=0;points=[];fontFamily=monospace;fontSize=15;fontColor=default;labelBackgroundColor=#444444;fillColor=none;gradientColor=none;" parent="vrU-Wr25Jtnr5T8jxTo--1" vertex="1" connectable="0">
          <mxGeometry x="-0.1795" relative="1" as="geometry">
            <mxPoint x="-7" y="53" as="offset" />
          </mxGeometry>
        </mxCell>
        <mxCell id="vrU-Wr25Jtnr5T8jxTo--5" style="rounded=0;orthogonalLoop=1;jettySize=auto;html=1;fontFamily=monospace;fontSize=15;fontColor=default;labelBackgroundColor=#444444;resizable=0;" parent="1" source="v0S2vT5wZ2QxvqDgRi7f-8" target="64hMs6I8nZk4gtIsN72T-3" edge="1">
          <mxGeometry relative="1" as="geometry">
            <Array as="points">
              <mxPoint x="520" y="300" />
            </Array>
          </mxGeometry>
        </mxCell>
        <mxCell id="vrU-Wr25Jtnr5T8jxTo--6" value="[5]↓E" style="edgeLabel;html=1;align=center;verticalAlign=middle;resizable=0;points=[];fontFamily=monospace;fontSize=15;fontColor=default;labelBackgroundColor=#444444;fillColor=none;gradientColor=none;" parent="vrU-Wr25Jtnr5T8jxTo--5" vertex="1" connectable="0">
          <mxGeometry x="-0.6311" y="1" relative="1" as="geometry">
            <mxPoint x="-2" y="56" as="offset" />
          </mxGeometry>
        </mxCell>
        <mxCell id="v0S2vT5wZ2QxvqDgRi7f-8" value="&lt;div style=&quot;font-size: 15px;&quot;&gt;S2&lt;/div&gt;&lt;div align=&quot;left&quot; style=&quot;font-size: 15px;&quot;&gt;&lt;br style=&quot;font-size: 15px;&quot;&gt;&lt;/div&gt;&lt;div align=&quot;left&quot; style=&quot;font-size: 15px;&quot;&gt;&lt;span style=&quot;text-align: center; background-color: rgb(74, 74, 74);&quot;&gt;E = T&lt;/span&gt;&lt;span style=&quot;text-align: center; background-color: rgb(74, 74, 74);&quot;&gt;&amp;nbsp;&lt;/span&gt;&lt;span style=&quot;text-align: center; background-color: rgb(74, 74, 74);&quot;&gt;•&lt;/span&gt;&lt;br&gt;&lt;/div&gt;&lt;div align=&quot;left&quot; style=&quot;font-size: 15px;&quot;&gt;&lt;span style=&quot;background-color: rgb(85, 85, 85); font-size: 15px;&quot;&gt;T = T • * F&lt;/span&gt;&lt;/div&gt;" style="rounded=0;whiteSpace=wrap;html=1;fontFamily=monospace;spacingLeft=0;fontSize=15;fillColor=#333333;fontColor=#FFFFFF;" parent="1" vertex="1">
          <mxGeometry x="431.19" y="29.8" width="111.19" height="90.2" as="geometry" />
        </mxCell>
        <mxCell id="-E7kK4X9FdWxb8oZjFQH-48" value="" style="edgeStyle=none;shape=connector;rounded=0;orthogonalLoop=1;jettySize=auto;html=1;strokeColor=default;align=center;verticalAlign=middle;spacingLeft=0;fontFamily=monospace;fontSize=15;fontColor=#FFFFFF;labelBackgroundColor=default;endArrow=classic;" parent="1" source="v0S2vT5wZ2QxvqDgRi7f-10" target="64hMs6I8nZk4gtIsN72T-3" edge="1">
          <mxGeometry relative="1" as="geometry">
            <mxPoint x="331" y="385" as="sourcePoint" />
            <mxPoint x="712" y="540" as="targetPoint" />
            <Array as="points">
              <mxPoint x="390" y="500" />
            </Array>
          </mxGeometry>
        </mxCell>
        <mxCell id="-E7kK4X9FdWxb8oZjFQH-51" value="&lt;span style=&quot;&quot;&gt;[5]↓F&lt;/span&gt;" style="edgeLabel;html=1;align=center;verticalAlign=middle;resizable=0;points=[];rounded=0;strokeColor=default;spacingLeft=0;fontFamily=monospace;fontSize=15;fontColor=#FFFFFF;fillColor=#333333;labelBackgroundColor=#444444;" parent="-E7kK4X9FdWxb8oZjFQH-48" vertex="1" connectable="0">
          <mxGeometry x="0.5659" y="-4" relative="1" as="geometry">
            <mxPoint x="-152" y="-79" as="offset" />
          </mxGeometry>
        </mxCell>
        <mxCell id="64hMs6I8nZk4gtIsN72T-3" value="&lt;div style=&quot;font-size: 15px;&quot;&gt;&lt;div&gt;S5Goto&lt;/div&gt;&lt;div align=&quot;left&quot;&gt;&lt;br&gt;&lt;/div&gt;&lt;div align=&quot;justify&quot;&gt;&lt;span style=&quot;background-color: rgb(68, 68, 68);&quot;&gt;E = • E + T&lt;/span&gt;&lt;/div&gt;&lt;div align=&quot;justify&quot;&gt;&lt;span style=&quot;text-align: left; background-color: rgb(74, 74, 74);&quot;&gt;E = • T&lt;/span&gt;&lt;span style=&quot;background-color: rgb(68, 68, 68);&quot;&gt;&lt;br&gt;&lt;/span&gt;&lt;/div&gt;&lt;div align=&quot;justify&quot;&gt;&lt;span style=&quot;background-color: rgb(85, 85, 85);&quot;&gt;T = • T * F&lt;/span&gt;&lt;/div&gt;&lt;div align=&quot;justify&quot;&gt;&lt;span style=&quot;background-color: rgb(119, 119, 119);&quot;&gt;T = • F&lt;/span&gt;&lt;/div&gt;&lt;div align=&quot;justify&quot;&gt;&lt;span style=&quot;background-color: rgb(187, 187, 187);&quot;&gt;F = ( • E )&lt;/span&gt;&lt;/div&gt;&lt;/div&gt;" style="rounded=0;whiteSpace=wrap;html=1;fontFamily=monospace;spacingLeft=0;fontSize=15;fillColor=#333333;fontColor=#FFFFFF;verticalAlign=top;" parent="1" vertex="1">
          <mxGeometry x="570" y="396.77" width="111.19" height="141.85" as="geometry" />
        </mxCell>
      </root>
    </mxGraphModel>
  </diagram>
</mxfile>
